{"title":"Trouble With The Curve 2012 CAM x264 AAC-UNiQUE","uid":7704168,"size":1564629790,"categoryP":"video","categoryS":"movies","magnet":"?xt=urn:btih:5a7c4eb4d62f4b6771b36ff93f6e6f8cb7a7451c&amp;dn=Trouble+With+The+Curve+2012+CAM+x264+AAC-UNiQUE&amp;tr=udp%3A%2F%2Ftracker.openbittorrent.com%3A80&amp;tr=udp%3A%2F%2Fopen.demonii.com%3A1337&amp;tr=udp%3A%2F%2Ftracker.coppersurfer.tk%3A6969&amp;tr=udp%3A%2F%2Fexodus.desync.com%3A6969","seeders":0,"leechers":1,"uploader":"crazy-torrent","files":2,"time":1349635627,"description":"\nGeneral \nComplete name : Trouble With The Curve 2012 CAM x264 AAC-UNiQUE.mp4 \nFormat : MPEG-4 \nFormat profile : Base Media \nCodec ID : isom \nFile size : 1.46 GiB \nDuration : 1h 45mn \nOverall bit rate mode : Variable \nOverall bit rate : 1 973 Kbps \nEncoded date : UTC 2012-10-06 17:42:30 \n\nVideo \nID : 1 \nFormat : AVC \nFormat/Info : Advanced Video Codec \nFormat profile : &lt;a class=&quot;__cf_email__&quot; href=&quot;/cdn-cgi/l/email-protection&quot; data-cfemail=&quot;420a2b252a020e766c73&quot;&gt;[email&amp;#160;protected]&lt;/a&gt;&lt;script cf-hash='f9e31' type=&quot;text/javascript&quot;&gt;\n/* &lt;![CDATA[ */!function(){try{var t=&quot;currentScript&quot;in document?document.currentScript:function(){for(var t=document.getElementsByTagName(&quot;script&quot;),e=t.length;e--;)if(t[e].getAttribute(&quot;cf-hash&quot;))return t[e]}();if(t&amp;&amp;t.previousSibling){var e,r,n,i,c=t.previousSibling,a=c.getAttribute(&quot;data-cfemail&quot;);if(a){for(e=&quot;&quot;,r=parseInt(a.substr(0,2),16),n=2;a.length-n;n+=2)i=parseInt(a.substr(n,2),16)^r,e+=String.fromCharCode(i);e=document.createTextNode(e),c.parentNode.replaceChild(e,c)}}}catch(u){}}();/* ]]&gt; */&lt;/script&gt; \nFormat settings, CABAC : Yes \nFormat settings, ReFrames : 3 frames \nCodec ID : avc1 \nCodec ID/Info : Advanced Video Coding \nDuration : 1h 45mn \nBit rate mode : Variable \nBit rate : 1 879 Kbps \nMaximum bit rate : 40.0 Mbps \nWidth : 592 pixels \nHeight : 272 pixels \nDisplay aspect ratio : 2.2:1 \nFrame rate mode : Constant \nFrame rate : 29.970 fps \nColor space : YUV \nChroma subsampling : 4:2:0 \nBit depth : 8 bits \nScan type : Progressive \nBits/(Pixel*Frame) : 0.389 \nStream size : 1.39 GiB (95%) \nWriting library : x264 core 128 r2216 198a7ea \n\nAudio \nID : 2 \nFormat : AAC \nFormat/Info : Advanced Audio Codec \nFormat profile : LC \nCodec ID : 40 \nDuration : 1h 45mn \nBit rate mode : Variable \nBit rate : 90.4 Kbps \nMaximum bit rate : 99.9 Kbps \nChannel(s) : 2 channels \nChannel positions : Front: L R \nSampling rate : 48.0 KHz \nCompression mode : Lossy \nStream size : 68.4 MiB (5%) \nLanguage : English \nEncoded date : UTC 2012-10-06 17:43:18 \n\nSource : HP - Thanks! \n\nStoryline \nAn ailing baseball scout in his twilight years takes his daughter along for one last recruiting trip. \n\niMDB: http://www.imdb.com/title/tt2083383/","torrent":{"xt":"urn:btih:5a7c4eb4d62f4b6771b36ff93f6e6f8cb7a7451c","amp;dn":"Trouble+With+The+Curve+2012+CAM+x264+AAC-UNiQUE","amp;tr":["udp%3A%2F%2Ftracker.openbittorrent.com%3A80","udp%3A%2F%2Fopen.demonii.com%3A1337","udp%3A%2F%2Ftracker.coppersurfer.tk%3A6969","udp%3A%2F%2Fexodus.desync.com%3A6969"],"infoHash":"5a7c4eb4d62f4b6771b36ff93f6e6f8cb7a7451c","infoHashBuffer":{"type":"Buffer","data":[90,124,78,180,214,47,75,103,113,179,111,249,63,110,111,140,183,167,69,28]},"announce":[],"urlList":[]}}